#!OML:ASF X:\für Bonn\!DataBase\2005_08_12_Daniel\c3d\Daniel.ASF
:FULLY-SPECIFIED
:DEGREES
139
root 2.91838 13.9073 0.412107 -15.8773 -85.131 0.787453
lowerback 36.3898 -0.197537 4.20785
upperback 0.935583 0.548997 -3.32124
thorax -17.537 -0.383505 -6.22291
lowerneck 0.575043 -4.43831 -1.13409
upperneck -6.79542 -6.1319 -1.39464
head -2.23898 -3.02216 -0.116861
rclavicle -2.80286e-014 8.74653e-015
rhumerus 63.9061 -0.163269 -74.0843
rradius 86.8489
rwrist 37.9902
rhand -68.1808 266.954
rfingers 7.12502
rthumb -39.8993 427.79
lclavicle -2.80286e-014 8.74653e-015
lhumerus -114.186 206.43 -119.584
lradius 93.7693
lwrist 45.5964
lhand -23.8596 -7.41106
lfingers 7.12502
lthumb 2.61296 22.5527
rfemur -24.7966 -13.984 4.2618
rtibia 89.0674
rfoot 332.35 10.4702
rtoes -13.8043
lfemur -32.7742 -5.69832 -12.115
ltibia 89.9353
lfoot -29.0416 -12.1332
ltoes -8.3337
140
root 2.8521 14.0713 0.397546 -14.1867 -84.8155 -0.708537
lowerback 35.932 -0.199851 4.29266
upperback 0.529033 0.601033 -3.32188
thorax -17.8439 -0.379114 -6.31177
lowerneck 0.4306 -4.61723 -1.39157
upperneck -6.41578 -6.34645 -1.17944
head -2.07235 -3.13079 -0.0134973
rclavicle -6.21202e-015 9.54166e-015
rhumerus 65.4152 -1.51982 -73.3324
rradius 86.5499
rwrist 37.8869
rhand -68.1388 263.401
rfingers 7.12502
rthumb -39.8598 431.331
lclavicle -6.21202e-015 9.54166e-015
lhumerus -112.217 205.752 -120.413
lradius 93.0305
lwrist 46.0024
lhand -22.7532 -7.55168
lfingers 7.12502
lthumb 3.68143 22.3963
rfemur -23.5752 -13.8229 4.78015
rtibia 87.2193
rfoot 332.687 9.62491
rtoes -13.9009
lfemur -31.7521 -6.03842 -12.2108
ltibia 88.2275
lfoot -28.7524 -11.5301
ltoes -8.65179
141
root 2.78041 14.2422 0.380276 -12.3883 -84.3978 -2.26133
lowerback 35.3677 -0.223543 4.35463
upperback 0.110345 0.613075 -3.31729
thorax -18.125 -0.389467 -6.36288
lowerneck 0.260224 -4.78364 -1.50207
upperneck -5.96087 -6.54424 -1.06865
head -1.88607 -3.2326 0.0294571
rclavicle 2.59911e-014 -9.54166e-015
rhumerus 66.7528 -2.83477 -72.68
rradius 86.2324
rwrist 37.8141
rhand -68.0862 260.731
rfingers 7.12502
rthumb -39.8103 433.986
lclavicle 2.59911e-014 -9.54166e-015
lhumerus -110.397 205.163 -121.146
lradius 92.2843
lwrist 46.3328
lhand -21.5895 -7.6724
lfingers 7.12502
lthumb 4.80519 22.2531
rfemur -22.2973 -13.7488 5.30875
rtibia 85.2496
rfoot 333.209 8.77265
rtoes -13.8732
lfemur -30.6715 -6.48843 -12.2968
ltibia 86.3534
lfoot -28.3611 -10.9349
ltoes -8.72806
142
root 2.70649 14.4231 0.361766 -10.4777 -83.9384 -3.93523
lowerback 34.7921 -0.267498 4.39869
upperback -0.30269 0.595584 -3.27443
thorax -18.3945 -0.409229 -6.34611
lowerneck -0.0561091 -4.92591 -1.67146
upperneck -5.33708 -6.70342 -0.954993
head -1.61937 -3.31632 0.0734263
rclavicle -6.51517e-014 3.10104e-014
rhumerus 67.9417 -4.00268 -72.059
rradius 85.9117
rwrist 37.6894
rhand -67.8601 258.375
rfingers 7.12502
rthumb -39.5974 436.279
lclavicle -6.51517e-014 3.10104e-014
lhumerus -108.693 204.573 -121.824
lradius 91.5535
lwrist 46.5931
lhand -20.534 -7.73033
lfingers 7.12502
lthumb 5.82424 22.1696
rfemur -20.9384 -13.6709 5.89898
rtibia 83.1368
rfoot 333.768 7.86132
rtoes -14.0116
lfemur -29.488 -6.99536 -12.3421
ltibia 84.3162
lfoot -27.7881 -10.383
ltoes -8.56557
143
root 2.63181 14.6148 0.344424 -8.64128 -83.4979 -5.55439
lowerback 34.2341 -0.31026 4.47505
upperback -0.746121 0.587508 -3.25093
thorax -18.706 -0.43265 -6.37562
lowerneck -0.405651 -5.07005 -1.77196
upperneck -4.54517 -6.86031 -0.876544
head -1.30052 -3.40074 0.0896347
rclavicle -1.77043e-014 2.38542e-014
rhumerus 68.9332 -5.11728 -71.4636
rradius 85.528
rwrist 37.5162
rhand -67.4006 256.291
rfingers 7.12502
rthumb -39.1645 438.236
lclavicle -1.77043e-014 2.38542e-014
lhumerus -107.187 204.134 -122.424
lradius 90.7876
lwrist 46.783
lhand -19.5967 -7.96536
lfingers 7.12502
lthumb 6.72915 21.9077
rfemur -19.5226 -13.5478 6.53938
rtibia 80.8577
rfoot 334.421 6.81935
rtoes -14.285
lfemur -28.1849 -7.53791 -12.3718
ltibia 82.1221
lfoot -27.0246 -9.78422
ltoes -8.20523
144
root 2.55712 14.8212 0.329636 -7.11435 -83.1402 -6.87633
lowerback 33.6804 -0.3241 4.50116
upperback -1.18695 0.595745 -3.21507
thorax -19.0117 -0.445134 -6.3705
lowerneck -0.888339 -5.18789 -1.91563
upperneck -3.57792 -6.97692 -0.811528
head -0.908712 -3.46643 0.0993062
rclavicle -1.85926e-014 6.36111e-015
rhumerus 69.7779 -6.06465 -70.942
rradius 85.132
rwrist 37.4616
rhand -66.8607 254.521
rfingers 7.12502
rthumb -38.6555 439.861
lclavicle -1.85926e-014 6.36111e-015
lhumerus -105.969 203.799 -122.829
lradius 90.0818
lwrist 46.9204
lhand -18.8111 -8.22618
lfingers 7.12502
lthumb 7.48747 21.6213
rfemur -18.0823 -13.2862 7.20086
rtibia 78.3854
rfoot 335.293 5.72747
rtoes -14.602
lfemur -26.7774 -8.07533 -12.438
ltibia 79.7824
lfoot -26.1419 -9.08033
ltoes -7.91969
145
root 2.48297 15.0393 0.316188 -5.78118 -82.8348 -8.03662
lowerback 33.1769 -0.325718 4.53764
upperback -1.65694 0.618027 -3.20694
thorax -19.3742 -0.459122 -6.41193
lowerneck -1.36824 -5.30704 -2.07594
upperneck -2.44158 -7.09165 -0.715836
head -0.471348 -3.53252 0.115911
rclavicle 2.65874e-015 -2.94201e-014
rhumerus 70.2742 -6.89788 -70.4633
rradius 84.8666
rwrist 37.4602
rhand -66.1381 252.843
rfingers 7.12502
rthumb -37.9734 441.351
lclavicle 2.65874e-015 -2.94201e-014
lhumerus -105.171 203.729 -123.027
lradius 89.5045
lwrist 46.9199
lhand -18.1921 -8.60604
lfingers 7.12502
lthumb 8.08493 21.2193
rfemur -16.5746 -12.9738 7.87811
rtibia 75.6798
rfoot 336.408 4.4032
rtoes -15.0781
lfemur -25.2876 -8.63891 -12.5228
ltibia 77.3027
lfoot -25.0861 -8.28688
ltoes -7.63136
146
root 2.40514 15.2745 0.302946 -4.61258 -82.55 -9.00806
lowerback 32.6369 -0.309273 4.5293
upperback -2.1541 0.645368 -3.18856
thorax -19.7531 -0.468366 -6.41992
lowerneck -1.89311 -5.41084 -2.25601
upperneck -1.14675 -7.18465 -0.643678
head 0.0132299 -3.58925 0.124168
rclavicle 1.27222e-014 9.54166e-015
rhumerus 70.5397 -7.56441 -70.0204
rradius 84.6295
rwrist 37.6577
rhand -65.4723 251.782
rfingers 7.12502
rthumb -37.3443 442.243
lclavicle 1.27222e-014 9.54166e-015
lhumerus -104.738 203.852 -123.025
lradius 89.0384
lwrist 46.8419
lhand -17.7511 -9.07114
lfingers 7.12502
lthumb 8.51057 20.7374
rfemur -14.9985 -12.6091 8.59039
rtibia 72.674
rfoot 337.845 2.9061
rtoes -15.6311
lfemur -23.7774 -9.21864 -12.6239
ltibia 74.659
lfoot -23.6982 -7.37728
ltoes -7.2776
147
root 2.30819 15.5403 0.290813 -3.50848 -82.2743 -9.89255
lowerback 31.9292 -0.292102 4.5025
upperback -2.67488 0.655838 -3.1852
thorax -20.083 -0.483087 -6.42513
lowerneck -2.35396 -5.48328 -2.42947
upperneck 0.277485 -7.23903 -0.565481
head 0.53252 -3.62814 0.135193
rclavicle -2.06239e-014 1.11319e-014
rhumerus 70.5148 -8.07441 -69.5873
rradius 84.4498
rwrist 37.9726
rhand -64.8633 250.836
rfingers 7.12502
rthumb -36.7683 443.04
lclavicle -2.06239e-014 1.11319e-014
lhumerus -104.562 204.143 -122.951
lradius 88.6192
lwrist 46.7875
lhand -17.6076 -9.54929
lfingers 7.12502
lthumb 8.64906 20.2535
rfemur -13.2075 -12.1912 9.33414
rtibia 69.3074
rfoot 339.548 1.20162
rtoes -16.5063
lfemur -22.0727 -9.87148 -12.7472
ltibia 71.7213
lfoot -21.8904 -6.3487
ltoes -6.88969
148
root 2.1922 15.8331 0.279572 -2.57752 -82.0132 -10.5745
lowerback 31.0546 -0.242164 4.45603
upperback -3.21329 0.689062 -3.20461
thorax -20.3457 -0.486801 -6.4531
lowerneck -2.69672 -5.55927 -2.56885
upperneck 1.7653 -7.3077 -0.491438
head 1.06273 -3.67537 0.141279
rclavicle 1.27222e-014 1.59028e-014
rhumerus 70.3028 -8.53535 -69.1396
rradius 84.2978
rwrist 38.4087
rhand -64.4253 250.361
rfingers 7.12502
rthumb -36.3538 443.41
lclavicle 1.27222e-014 1.59028e-014
lhumerus -104.537 204.634 -122.795
lradius 88.237
lwrist 46.7856
lhand -17.6585 -10.0656
lfingers 7.12502
lthumb 8.5999 19.7392
rfemur -11.2152 -11.6781 10.0681
rtibia 65.5788
rfoot 341.569 -0.515107
rtoes -18.0721
lfemur -20.1924 -10.5932 -12.9203
ltibia 68.4545
lfoot -19.7196 -5.15892
ltoes -6.59501
149
root 2.07179 16.1462 0.267455 -1.47373 -81.7534 -11.3508
lowerback 30.0793 -0.201061 4.40059
upperback -3.79827 0.704593 -3.21021
thorax -20.612 -0.498215 -6.45147
lowerneck -2.83934 -5.60683 -2.66772
upperneck 3.19783 -7.35352 -0.457668
head 1.54898 -3.71226 0.135385
rclavicle -2.73329e-014 -5.56597e-015
rhumerus 69.9744 -8.88893 -68.6673
rradius 84.1109
rwrist 38.9734
rhand -64.2258 249.927
rfingers 7.12502
rthumb -36.1648 443.797
lclavicle -2.73329e-014 -5.56597e-015
lhumerus -104.733 205.174 -122.557
lradius 87.9211
lwrist 46.7761
lhand -17.8823 -10.5082
lfingers 7.12502
lthumb 8.38393 19.3054
rfemur -9.19889 -10.9342 10.8811
rtibia 61.5202
rfoot 344.036 -2.22643
rtoes -19.8446
lfemur -18.2993 -11.4019 -13.0672
ltibia 64.8785
lfoot -17.1464 -3.72414
ltoes -6.40559
150
root 1.94236 16.4869 0.255191 -0.669918 -81.5005 -11.7698
lowerback 28.8878 -0.127809 4.30258
upperback -4.38762 0.728405 -3.25168
thorax -20.7595 -0.500655 -6.46469
lowerneck -2.543 -5.65058 -2.67672
upperneck 4.43213 -7.42266 -0.411616
head 1.89915 -3.75945 0.134893
rclavicle 2.70347e-014 2.3059e-014
rhumerus 69.6233 -9.23854 -68.1852
rradius 83.8647
rwrist 39.5435
rhand -64.2141 249.735
rfingers 7.12502
rthumb -36.1538 443.987
lclavicle 2.70347e-014 2.3059e-014
lhumerus -105.018 205.839 -122.238
lradius 87.6357
lwrist 46.7439
lhand -18.206 -10.8326
lfingers 7.12502
lthumb 8.07156 18.9932
rfemur -7.04312 -9.83087 11.7243
rtibia 57.0707
rfoot 346.829 -4.08228
rtoes -21.5744
lfemur -16.3249 -12.304 -13.2563
ltibia 60.9889
lfoot -14.1626 -2.08331
ltoes -6.24108
151
root 1.80566 16.8496 0.243053 0.204892 -81.2511 -12.1725
lowerback 27.4716 -0.0398968 4.19382
upperback -4.97058 0.755848 -3.30276
thorax -20.7597 -0.495793 -6.47572
lowerneck -2.09366 -5.67285 -2.65179
upperneck 5.5852 -7.47753 -0.380831
head 2.19751 -3.80053 0.130533
rclavicle 3.91606e-014 1.90833e-014
rhumerus 69.3911 -9.58038 -67.6434
rradius 83.5465
rwrist 39.9892
rhand -64.3211 249.646
rfingers 7.12502
rthumb -36.2551 444.101
lclavicle 3.91606e-014 1.90833e-014
lhumerus -105.371 206.504 -121.864
lradius 87.3527
lwrist 46.8186
lhand -18.5141 -11.1773
lfingers 7.12502
lthumb 7.77416 18.6598
rfemur -4.8021 -8.22554 12.7372
rtibia 52.2611
rfoot 349.954 -6.48714
rtoes -22.5976
lfemur -14.3556 -13.2965 -13.4127
ltibia 56.8657
lfoot -10.6141 -0.0447719
ltoes -5.70441
